<svg width="30" height="16" viewBox="0 0 30 16" fill="none" xmlns="http://www.w3.org/2000/svg">
<path d="M2.84469 12.6459C2.94765 13.3096 3.28437 13.9147 3.79412 14.352C4.30388 14.7894 4.95312 15.0302 5.62476 15.031H7.49976C8.16559 15.0301 8.80957 14.7934 9.31743 14.3628C9.82528 13.9322 10.1642 13.3356 10.274 12.6789L14.5665 12.6632C14.6731 13.3232 15.0109 13.9239 15.5197 14.3577C16.0284 14.7915 16.6749 15.0301 17.3435 15.031H19.2185C19.6178 15.0311 20.0125 14.9459 20.3762 14.7812C20.7399 14.6166 21.0643 14.3762 21.3277 14.0761C21.5922 14.3749 21.9168 14.6145 22.2804 14.7791C22.644 14.9436 23.0382 15.0295 23.4373 15.031H25.3123C25.989 15.0301 26.6427 14.7856 27.1539 14.3422C27.6651 13.8988 27.9996 13.2861 28.0961 12.6163C28.377 12.5234 28.6215 12.3444 28.7949 12.1048C28.9683 11.8651 29.0619 11.5769 29.0623 11.281V7.53102C29.0613 6.66108 28.7153 5.82705 28.1001 5.21191C27.485 4.59677 26.651 4.25075 25.781 4.24977H22.6759L20.2514 2.12832C19.3969 1.38054 18.3001 0.968402 17.1646 0.968518H5.85224C5.42117 0.967339 4.99414 1.05167 4.59588 1.21663C4.19761 1.3816 3.83602 1.62392 3.53204 1.92956L1.48644 3.97517C1.31178 4.14887 1.17331 4.35549 1.07904 4.58307C0.984775 4.81065 0.936586 5.05467 0.937263 5.30099V10.3435C0.93802 10.8892 1.12886 11.4175 1.47696 11.8377C1.82507 12.2579 2.3087 12.5437 2.84469 12.6459ZM2.86341 11.6865C2.65348 11.6206 2.46184 11.5066 2.30377 11.3535C2.14569 11.2005 2.02555 11.0127 1.95292 10.805C2.06634 10.786 2.16881 10.726 2.2408 10.6363L2.9445 9.75672C3.26607 9.35476 3.67393 9.03028 4.13788 8.80729C4.60184 8.5843 5.11 8.46852 5.62476 8.46852C6.13952 8.46852 6.64769 8.5843 7.11165 8.80729C7.5756 9.03028 7.98346 9.35476 8.30503 9.75672L9.00872 10.6363C9.05264 10.6912 9.10834 10.7356 9.1717 10.766C9.23506 10.7965 9.30446 10.8123 9.37476 10.8123H10.3123V11.7412L8.39717 11.7482C8.28708 11.0985 7.95233 10.5081 7.45134 10.0801C6.95036 9.65205 6.31497 9.41354 5.65607 9.4062C4.99717 9.39885 4.35662 9.62312 3.84621 10.0399C3.3358 10.4566 2.98797 11.0394 2.86341 11.6865V11.6865ZM3.74976 12.2185C3.74976 11.8477 3.85973 11.4852 4.06576 11.1768C4.27178 10.8685 4.56462 10.6282 4.90723 10.4862C5.24984 10.3443 5.62684 10.3072 5.99056 10.3795C6.35427 10.4519 6.68836 10.6305 6.95059 10.8927C7.21281 11.1549 7.39139 11.489 7.46374 11.8527C7.53608 12.2164 7.49895 12.5934 7.35704 12.9361C7.21512 13.2787 6.9748 13.5715 6.66646 13.7775C6.35811 13.9836 5.9956 14.0935 5.62476 14.0935C5.12765 14.093 4.65106 13.8952 4.29955 13.5437C3.94804 13.1922 3.75032 12.7156 3.74976 12.2185ZM7.7317 14.0787C8.07971 13.6858 8.31048 13.2032 8.39774 12.6857L9.31661 12.6823C9.22274 13.0471 9.02146 13.3752 8.73885 13.6242C8.45625 13.8732 8.10537 14.0315 7.7317 14.0787ZM15.4685 12.2185C15.4685 11.8477 15.5785 11.4852 15.7845 11.1768C15.9905 10.8685 16.2834 10.6282 16.626 10.4862C16.9686 10.3443 17.3456 10.3072 17.7093 10.3795C18.073 10.4519 18.4071 10.6305 18.6693 10.8927C18.9316 11.1549 19.1101 11.489 19.1825 11.8527C19.2548 12.2164 19.2177 12.5934 19.0758 12.9361C18.9339 13.2787 18.6936 13.5715 18.3852 13.7775C18.0769 13.9836 17.7144 14.0935 17.3435 14.0935C16.8464 14.093 16.3698 13.8952 16.0183 13.5437C15.6668 13.1922 15.4691 12.7156 15.4685 12.2185V12.2185ZM19.4504 14.0787C19.7981 13.6862 20.0287 13.2042 20.1162 12.6873H21.0342C20.9395 13.0509 20.738 13.3779 20.4557 13.6259C20.1734 13.8739 19.8233 14.0316 19.4504 14.0787ZM21.8486 13.2135C21.9132 13.0432 21.961 12.8669 21.9912 12.6873H25.2529C25.1613 13.0422 24.9677 13.3625 24.696 13.6085C24.4242 13.8545 24.0863 14.0155 23.7241 14.0715C23.3618 14.1275 22.9911 14.0761 22.6578 13.9236C22.3244 13.7711 22.0431 13.5242 21.8486 13.2135H21.8486ZM25.5442 14.0787C25.8918 13.6862 26.1225 13.2042 26.21 12.6873H27.1279C27.0333 13.0509 26.8318 13.3779 26.5495 13.6259C26.2672 13.8739 25.917 14.0316 25.5442 14.0787ZM27.656 11.7498H20.1162C20.0059 11.0965 19.6685 10.5032 19.1635 10.0744C18.6585 9.64562 18.0183 9.40892 17.3558 9.40603C16.6933 9.40315 16.0511 9.63427 15.5424 10.0586C15.0337 10.483 14.6911 11.0734 14.5751 11.7256L11.2498 11.7378V10.8123H13.5935C13.6638 10.8123 13.7332 10.7965 13.7966 10.766C13.8599 10.7356 13.9156 10.6912 13.9596 10.6363L14.6632 9.75672C14.9848 9.35476 15.3927 9.03028 15.8566 8.80729C16.3206 8.5843 16.8288 8.46852 17.3435 8.46852C17.8583 8.46852 18.3664 8.5843 18.8304 8.80729C19.2943 9.03028 19.7022 9.35476 20.0238 9.75672L20.7275 10.6363C20.7714 10.6912 20.8271 10.7356 20.8904 10.766C20.9538 10.7965 21.0232 10.8123 21.0935 10.8123H28.1248V11.281C28.1246 11.4053 28.0752 11.5244 27.9873 11.6123C27.8994 11.7002 27.7803 11.7496 27.656 11.7498V11.7498ZM22.4998 7.99977C22.2512 7.99949 22.0129 7.90062 21.8372 7.72487C21.6614 7.54911 21.5625 7.31082 21.5623 7.06227H22.9685V7.99977H22.4998ZM23.906 7.06227H28.0776C28.109 7.21654 28.1248 7.37358 28.1248 7.53102V7.99977H23.906V7.06227ZM25.781 5.18727C26.1447 5.1873 26.5033 5.27203 26.8286 5.43476C27.1538 5.59749 27.4367 5.83373 27.6547 6.12477H21.0935C21.032 6.12477 20.971 6.13689 20.9141 6.16045C20.8573 6.184 20.8056 6.21853 20.7621 6.26206C20.7185 6.30559 20.684 6.35726 20.6604 6.41413C20.6369 6.47101 20.6248 6.53196 20.6248 6.59352V7.06227C20.6253 7.55938 20.823 8.03597 21.1746 8.38748C21.5261 8.73899 22.0027 8.93671 22.4998 8.93727H28.1248V9.87477H21.3188L20.7559 9.17107C20.3465 8.65932 19.8272 8.24621 19.2365 7.96232C18.6458 7.67842 17.9989 7.53102 17.3435 7.53102C16.6882 7.53102 16.0412 7.67842 15.4505 7.96232C14.8598 8.24621 14.3406 8.65932 13.9312 9.17107L13.3682 9.87477H11.2498V8.93727C11.2498 8.87571 11.2376 8.81476 11.2141 8.75789C11.1905 8.70102 11.156 8.64934 11.1125 8.60582L9.84351 7.33684V5.18727H25.781V5.18727ZM17.1646 1.90602C18.073 1.90591 18.9505 2.23562 19.634 2.83385L21.2522 4.24977H17.0509L14.6264 2.12832C14.5371 2.05023 14.4447 1.9767 14.3504 1.90602L17.1646 1.90602ZM11.5396 1.90602C12.448 1.90591 13.3255 2.23562 14.009 2.83385L15.6272 4.24977H9.84351V1.90602H11.5396ZM8.90601 4.24977H5.12938L6.80348 1.90602H8.90601L8.90601 4.24977ZM2.14933 4.6381L4.19494 2.59249C4.5829 2.2025 5.09653 1.96264 5.64461 1.91552L3.83708 4.44607C3.78702 4.51615 3.75724 4.59867 3.751 4.68457C3.74476 4.77047 3.76231 4.85643 3.80172 4.93301C3.84113 5.00959 3.90087 5.07383 3.9744 5.11869C4.04792 5.16354 4.13238 5.18727 4.21851 5.18727H8.90601V7.53102C8.90601 7.59258 8.91813 7.65353 8.94169 7.7104C8.96525 7.76727 8.99978 7.81895 9.04331 7.86247L10.3123 9.13145V9.87477H9.60007L9.03711 9.17107C8.6277 8.65932 8.10844 8.24621 7.51777 7.96231C6.92709 7.67842 6.28012 7.53102 5.62476 7.53102C4.9694 7.53102 4.32244 7.67842 3.73176 7.96231C3.14108 8.24621 2.62182 8.65932 2.21242 9.17107L1.87476 9.59314V7.99977H2.34351C2.42068 7.99977 2.49666 7.98072 2.56469 7.9443C2.63273 7.90789 2.69073 7.85524 2.73353 7.79103L3.67103 6.38478C3.71809 6.31418 3.74511 6.23214 3.7492 6.1474C3.7533 6.06266 3.73432 5.97839 3.69429 5.90359C3.65425 5.82878 3.59467 5.76625 3.52189 5.72265C3.44911 5.67905 3.36585 5.65602 3.28101 5.65602H1.87476V5.30099C1.87442 5.17783 1.89852 5.05583 1.94565 4.94204C1.99278 4.82825 2.06201 4.72494 2.14934 4.63809L2.14933 4.6381ZM1.87476 7.06227V6.59352H2.40514L2.09266 7.06227H1.87476Z" fill="#2C68F6"/>
</svg>
