<svg width="43" height="45" viewBox="0 0 43 45" fill="none" xmlns="http://www.w3.org/2000/svg">
<path d="M19.3473 44.3279C23.0983 45.0172 27.1029 45.1509 30.5945 43.6157C33.1926 42.4727 35.3159 40.493 37.3848 38.5499C38.9337 37.0973 40.5145 35.5986 41.4612 33.6969C42.8515 30.9046 42.6988 27.6255 42.5145 24.5116C42.3307 21.4076 42.141 18.2637 41.1765 15.3075C39.2258 9.31991 33.8961 4.62803 27.7939 3.19245C26.894 2.983 26.0497 2.58244 25.3183 2.01792C24.9349 1.7172 24.5278 1.44794 24.101 1.21277C23.5198 0.866525 22.8749 0.640862 22.2046 0.549236C21.5344 0.45761 20.8525 0.501898 20.1998 0.679461C18.985 1.0783 18.0698 2.05818 17.0373 2.81187C14.7339 4.49315 11.7884 5.07169 9.40906 6.64257C5.64725 9.12568 3.86844 13.6349 2.30836 17.8616C1.38741 20.3559 0.45692 22.8959 0.305435 25.5504C0.0277823 30.4199 2.49678 35.1948 6.15732 38.4162C9.81786 41.6377 14.5504 43.4484 19.3473 44.3279Z" fill="#E28C1A"/>
</svg>
