<svg width="50" height="50" viewBox="0 0 50 50" fill="none" xmlns="http://www.w3.org/2000/svg">
<rect width="50" height="50" rx="25" fill="#FFC300"/>
<g clip-path="url(#clip0_1_175)">
<path d="M35.7641 40.0722C37.0124 38.8256 37.0154 36.8047 35.7708 35.5583C34.5261 34.3119 32.5052 34.312 31.2569 35.5586C30.0085 36.8051 30.0056 38.8261 31.2502 40.0725C32.4948 41.3189 34.5158 41.3187 35.7641 40.0722Z" fill="white"/>
<path d="M15.8466 34.6263C13.9237 34.5033 12.3314 36.0956 12.4544 38.0184C12.5561 39.6078 13.84 40.8916 15.4294 40.9934C17.3523 41.1164 18.9445 39.5241 18.8215 37.6013C18.7198 36.0119 17.4359 34.7281 15.8466 34.6263Z" fill="white"/>
<path d="M17.6089 23.0537V25.5505C17.6089 26.9778 18.7659 28.1349 20.1933 28.1349H24.0626V22.9468H18.7339C18.352 22.9468 17.9758 22.983 17.6089 23.0537Z" fill="white"/>
<path d="M29.7213 24.133C28.9617 23.3735 27.9316 22.9468 26.8574 22.9468H25.9375V28.1349H33.7231L29.7213 24.133Z" fill="white"/>
<path d="M39.2005 37.4025C40.1804 37.4025 40.9921 36.6187 40.9999 35.6388C41 35.632 41 35.625 41 35.6181V32.8675C41 31.7512 40.2869 30.7693 39.2256 30.4243C38.7188 30.2595 38.0527 30.01 37.0476 30.01H20.1931C17.7302 30.01 15.7337 28.0135 15.7337 25.5506V23.7625C15.3094 24.0131 14.9138 24.3193 14.5563 24.6768L9.84875 29.385C9.30125 29.9318 9 30.66 9 31.4337V35.29C9 35.4536 9.01369 35.6142 9.03994 35.7705C9.16919 36.5401 9.84294 37.0996 10.6233 37.0996C10.9699 34.6417 13.0861 32.7443 15.6381 32.7443C18.3698 32.7443 20.6025 34.9192 20.6985 37.6285H28.4275C28.5202 34.9376 30.7424 32.7443 33.4894 32.7443C36.2021 32.7443 38.3433 34.8676 38.5416 37.4025H39.2005V37.4025ZM27.8647 33.135H26.2498C25.7452 33.135 25.3108 32.7475 25.2867 32.2434C25.2609 31.705 25.6904 31.26 26.2231 31.26H27.8912C28.4246 31.26 28.8534 31.7051 28.8276 32.2435C28.8036 32.7475 28.3693 33.135 27.8647 33.135Z" fill="white"/>
<path d="M24.8781 20.0223C25.4913 20.0995 26.007 19.5839 25.9298 18.9707C25.8771 18.5528 25.5397 18.2154 25.1219 18.1627C24.5086 18.0854 23.9929 18.6012 24.0702 19.2145C24.1228 19.6323 24.4603 19.9697 24.8781 20.0223Z" fill="white"/>
<path d="M27.5745 16.5188C27.9407 16.8849 28.5341 16.8849 28.9004 16.5188C29.2664 16.1527 29.2664 15.5591 28.9003 15.193C27.8587 14.1514 26.4736 13.5779 25.0002 13.5779C23.5392 13.5779 22.1652 14.1417 21.1268 15.1664C20.7611 15.5273 20.7267 16.12 21.0774 16.4954C21.4412 16.8847 22.0521 16.8926 22.4258 16.5188C23.1132 15.8314 24.0274 15.4528 25.0001 15.4528C25.9729 15.4529 26.887 15.8314 27.5745 16.5188Z" fill="white"/>
<path d="M19.2043 13.2673C20.7541 11.7244 22.8116 10.875 25.0001 10.875C27.1956 10.875 29.2592 11.7298 30.8107 13.2821C31.1859 13.6574 31.8 13.6481 32.1633 13.2545C32.5091 12.8799 32.4749 12.2925 32.1134 11.9331C30.2104 10.0414 27.6856 9 25.0001 9C22.3036 9 19.769 10.05 17.8633 11.9565C17.4849 12.3351 17.4978 12.9567 17.902 13.3187C18.2745 13.6522 18.85 13.6199 19.2043 13.2673Z" fill="white"/>
</g>
<defs>
<clipPath id="clip0_1_175">
<rect width="32" height="32" fill="white" transform="translate(9 9)"/>
</clipPath>
</defs>
</svg>
