<svg width="50" height="50" viewBox="0 0 50 50" fill="none" xmlns="http://www.w3.org/2000/svg">
<path fill-rule="evenodd" clip-rule="evenodd" d="M25.0238 0.022583C38.8308 0.022583 50.0244 11.2198 50.0244 25.026C50.0244 38.8323 38.8308 50.0224 25.0238 50.0224C11.2169 50.0224 0.0239258 38.8323 0.0239258 25.026C0.0239258 11.2198 11.2176 0.022583 25.0238 0.022583ZM25.0238 18.794C23.3545 18.7948 21.7371 19.3744 20.4472 20.4341C19.1573 21.4937 18.2747 22.9677 17.9497 24.6051C17.6248 26.2425 17.8776 27.9419 18.6651 29.4138C19.4526 30.8857 20.7261 32.0391 22.2685 32.6773C23.811 33.3156 25.5271 33.3993 27.1244 32.9142C28.7217 32.4291 30.1014 31.4052 31.0284 30.017C31.9554 28.6287 32.3724 26.962 32.2084 25.3007C32.0444 23.6395 31.3094 22.0865 30.1288 20.9064C29.4591 20.2353 28.6632 19.7032 27.7872 19.3406C26.9111 18.9781 25.972 18.7923 25.0238 18.794ZM29.136 21.8983C28.1848 20.9467 26.933 20.3544 25.5941 20.2222C24.2551 20.0901 22.9117 20.4263 21.7928 21.1736C20.6739 21.9208 19.8487 23.0329 19.4578 24.3204C19.0669 25.6078 19.1345 26.991 19.649 28.2342C20.1636 29.4774 21.0933 30.5038 22.2797 31.1384C23.4661 31.773 24.8359 31.9766 26.1556 31.7146C27.4753 31.4525 28.6634 30.741 29.5173 29.7012C30.3713 28.6614 30.8383 27.3577 30.8388 26.0122C30.8395 25.2482 30.6895 24.4915 30.3973 23.7856C30.1051 23.0796 29.6765 22.4383 29.136 21.8983ZM21.5232 26.3267L24.0186 28.4744C24.1563 28.5914 24.3338 28.6507 24.5142 28.64C24.6945 28.6292 24.8638 28.5493 24.9866 28.4168L28.5829 24.5594C28.6462 24.4921 28.6957 24.413 28.7283 24.3266C28.761 24.2401 28.7762 24.1481 28.7732 24.0558C28.7702 23.9634 28.749 23.8726 28.7107 23.7885C28.6725 23.7043 28.618 23.6286 28.5505 23.5656C28.4829 23.5026 28.4035 23.4536 28.3169 23.4213C28.2303 23.3891 28.1382 23.3743 28.0459 23.3778C27.9536 23.3812 27.8628 23.4029 27.7789 23.4416C27.695 23.4802 27.6195 23.5351 27.5568 23.603L24.4203 26.9688L22.4342 25.2598C22.2925 25.1399 22.1092 25.081 21.9242 25.096C21.7392 25.111 21.5678 25.1987 21.4473 25.3399C21.3268 25.481 21.2672 25.6642 21.2815 25.8492C21.2957 26.0342 21.3827 26.206 21.5233 26.3271L21.5232 26.3267ZM12.4866 16.6373L16.0338 13.8519C16.1229 13.7808 16.2282 13.7326 16.3403 13.7118C16.4525 13.691 16.568 13.698 16.6768 13.7323C17.9777 14.0767 19.3231 14.223 20.6677 14.1663C22.0756 14.1009 23.4673 13.837 24.8015 13.3825C24.9462 13.336 25.1019 13.336 25.2466 13.3825C26.5808 13.837 27.9725 14.1008 29.3805 14.1663C30.7354 14.2214 32.0911 14.0737 33.4023 13.728C33.5068 13.6995 33.6165 13.6958 33.7226 13.7173C33.8288 13.7389 33.9284 13.7849 34.0135 13.8519H34.0143L37.5614 16.6373C37.7749 15.2968 38.2127 14.0018 38.8563 12.8068L34.9803 9.15344C33.4587 10.0128 31.8797 10.4675 30.2433 10.5174C28.5493 10.5705 26.8095 10.1867 25.0239 9.36594C23.2384 10.1853 21.4989 10.5691 19.8056 10.5174C18.1688 10.4687 16.5897 10.0141 15.0681 9.15344L11.1919 12.8068C11.8355 14.0019 12.2733 15.2968 12.4867 16.6373H12.4866ZM37.4171 18.3113L33.4178 15.1667C32.0789 15.4888 30.7018 15.623 29.326 15.5654C27.8636 15.4983 26.4168 15.2361 25.0238 14.7859C23.631 15.2361 22.1843 15.4983 20.7221 15.5654C19.3462 15.623 17.9691 15.4888 16.6303 15.1667L12.6314 18.3113C12.6656 20.2774 12.2317 22.3396 11.33 24.4978C10.5279 27.3009 10.4429 29.6154 11.0749 31.4411C11.6891 33.2169 13.0062 34.5587 15.0263 35.4665C17.713 36.3699 19.9247 37.3204 21.6613 38.3181C23.0882 39.1374 24.209 39.995 25.0238 40.891C25.8391 39.9964 26.9602 39.1388 28.3872 38.3181C30.1231 37.322 32.3346 36.3715 35.0218 35.4665C37.042 34.5587 38.3592 33.2169 38.9732 31.4411C39.6056 29.6122 39.5206 27.2978 38.7182 24.4978C37.8162 22.3411 37.3825 20.279 37.4172 18.3113H37.4171Z" fill="#FFC300"/>
</svg>
