<svg width="50" height="50" viewBox="0 0 50 50" fill="none" xmlns="http://www.w3.org/2000/svg">
<rect width="50" height="50" rx="25" fill="#FFC300"/>
<path d="M39.9577 26.0769H39.4444V24.6468C39.4444 22.9637 38.0751 21.5944 36.392 21.5944H33.5414L33.4729 21.439C32.0823 18.2828 28.9551 16.2434 25.5063 16.2434H17.2513C15.5068 16.2434 13.9905 17.3639 13.478 19.0314L12.6129 21.8466C11.9498 22.1777 11.4606 22.8062 11.3208 23.5564C11.7513 23.5564 12.098 23.5564 12.5259 23.5564C12.9289 23.5564 13.2556 23.8831 13.2556 24.2861C13.2556 24.6961 12.9201 25.0158 12.5259 25.0158H11.2795V26.0795C10.0133 26.1341 9 27.1808 9 28.4601C9 29.7743 10.0691 30.8434 11.3833 30.8434H12.1311C11.9114 27.8978 14.0717 25.4104 16.8704 25.0746H18.165C20.9911 25.4137 23.1217 27.9292 22.9043 30.8434H28.358C28.1177 27.6234 30.7486 25.0384 33.4868 25.0384C33.5839 25.0384 33.7597 25.0348 33.7597 25.0348C36.8638 25.0434 39.3666 27.6863 39.1312 30.8434H39.9575C40.5332 30.8434 40.9999 30.3767 40.9999 29.801V27.1193C41.0001 26.5435 40.5335 26.0769 39.9577 26.0769ZM20.2567 21.5944H14.8715L15.4708 19.6437C15.7126 18.8569 16.4282 18.3281 17.2513 18.3281H20.2567V21.5944ZM27.4836 25.0157H25.0001C24.5971 25.0157 24.2704 24.689 24.2704 24.286C24.2704 23.883 24.5971 23.5563 25.0001 23.5563H27.4836C27.8866 23.5563 28.2133 23.883 28.2133 24.286C28.2133 24.689 27.8866 25.0157 27.4836 25.0157ZM22.3414 21.5944V18.3282H25.5063C27.8704 18.3282 30.0351 19.5884 31.2139 21.5944H22.3414Z" fill="white"/>
<path d="M17.5179 27.1191C15.685 27.1191 14.1992 28.605 14.1992 30.4378C14.1992 32.2707 15.685 33.7564 17.5179 33.7564C19.3507 33.7564 20.8365 32.2706 20.8365 30.4378C20.8365 28.605 19.3507 27.1191 17.5179 27.1191ZM17.5179 31.699C16.8214 31.699 16.2567 31.1344 16.2567 30.4379C16.2567 29.7414 16.8213 29.1767 17.5179 29.1767C18.2144 29.1767 18.779 29.7413 18.779 30.4379C18.779 31.1343 18.2144 31.699 17.5179 31.699Z" fill="white"/>
<path d="M33.7449 27.1191C31.912 27.1191 30.4263 28.605 30.4263 30.4378C30.4263 32.2707 31.9121 33.7564 33.7449 33.7564C35.5777 33.7564 37.0635 32.2706 37.0635 30.4378C37.0636 28.605 35.5778 27.1191 33.7449 27.1191ZM33.7449 31.699C33.0484 31.699 32.4838 31.1344 32.4838 30.4379C32.4838 29.7414 33.0484 29.1767 33.7449 29.1767C34.4414 29.1767 35.0061 29.7413 35.0061 30.4379C35.0062 31.1343 34.4415 31.699 33.7449 31.699Z" fill="white"/>
</svg>
