<svg width="50" height="50" viewBox="0 0 50 50" fill="none" xmlns="http://www.w3.org/2000/svg">
<rect width="50" height="50" rx="25" fill="#FFC300"/>
<path d="M17.5 22.125C15.9491 22.125 14.6875 23.3866 14.6875 24.9375V32.5625C14.6875 34.1134 15.9491 35.375 17.5 35.375C19.0509 35.375 20.3125 34.1134 20.3125 32.5625V24.9375C20.3125 23.3866 19.0509 22.125 17.5 22.125Z" fill="white"/>
<path d="M12.8125 24.9375C12.8125 24.667 12.8482 24.4058 12.8924 24.1478C11.7625 24.513 10.9375 25.5625 10.9375 26.8125V30.6875C10.9375 31.9374 11.7625 32.9869 12.8924 33.3521C12.8482 33.0941 12.8125 32.8329 12.8125 32.5625V24.9375Z" fill="white"/>
<path d="M32.5 22.125C30.9491 22.125 29.6875 23.3866 29.6875 24.9375V32.5625C29.6875 34.1134 30.9491 35.375 32.5 35.375C32.7819 35.375 33.0489 35.3208 33.3057 35.2432C32.9567 36.4001 31.8941 37.25 30.625 37.25H27.6398C27.2515 36.1611 26.2206 35.375 25 35.375C23.4491 35.375 22.1875 36.6366 22.1875 38.1875C22.1875 39.7384 23.4491 41 25 41C26.2206 41 27.2515 40.2139 27.6398 39.125H30.625C33.2096 39.125 35.3125 37.0221 35.3125 34.4375V32.5625V24.9375C35.3125 23.3866 34.0509 22.125 32.5 22.125Z" fill="white"/>
<path d="M37.1074 24.1478C37.1516 24.4058 37.1873 24.667 37.1873 24.9375V32.5625C37.1873 32.8329 37.1516 33.0941 37.1074 33.3521C38.2373 32.9869 39.0623 31.9374 39.0623 30.6875V26.8125C39.0623 25.5625 38.2373 24.513 37.1074 24.1478Z" fill="white"/>
<path d="M25 9C17.2455 9 10.9375 15.308 10.9375 23.0625V23.0864C11.4961 22.6636 12.1423 22.3541 12.8554 22.2156C13.2936 15.8907 18.5659 10.875 25 10.875C31.4341 10.875 36.7064 15.8907 37.1446 22.2155C37.8576 22.3541 38.5039 22.6636 39.0625 23.0864V23.0625C39.0625 15.308 32.7545 9 25 9Z" fill="white"/>
</svg>
